<?xml version="1.0" encoding="UTF-8" standalone="no"?>
<svg width="23px" height="36px" viewBox="0 0 23 36" version="1.1" xmlns="http://www.w3.org/2000/svg" xmlns:xlink="http://www.w3.org/1999/xlink" xmlns:sketch="http://www.bohemiancoding.com/sketch/ns">
    <!-- Generator: Sketch 3.3.2 (12043) - http://www.bohemiancoding.com/sketch -->
    <title>ackernaut-pixel</title>
    <desc>Created with Sketch.</desc>
    <defs></defs>
    <g id="Page-1" stroke="none" stroke-width="1" fill="none" fill-rule="evenodd" sketch:type="MSPage">
        <g id="Group" sketch:type="MSLayerGroup">
            <path d="M12,4 L13,4 L13,5 L12,5 L12,4 Z M13,5 L14,5 L14,6 L13,6 L13,5 Z M12,6 L15,6 L15,10 L12,10 L12,6 Z M15,8 L16,8 L16,13 L15,13 L15,8 Z M11,8 L12,8 L12,9 L11,9 L11,8 Z M14,10 L15,10 L15,13 L14,13 L14,10 Z M13,11 L14,11 L14,13 L13,13 L13,11 Z M12,12 L13,12 L13,13 L12,13 L12,12 Z" id="Rectangle-113" fill="#364D4D" sketch:type="MSShapeGroup"></path>
            <path d="M3,9 L4,9 L4,14 L3,14 L3,9 Z M7,8 L8,8 L8,13 L7,13 L7,8 Z M8,6 L9,6 L9,13 L8,13 L8,6 Z M9,9 L10,9 L10,12 L9,12 L9,9 Z M10,10 L11,10 L11,11 L10,11 L10,10 Z M9,5 L10,5 L10,8 L9,8 L9,5 Z M10,4 L11,4 L11,7 L10,7 L10,4 Z M11,4 L12,4 L12,6 L11,6 L11,4 Z M4,19 L5,19 L5,20 L4,20 L4,19 Z M7,24 L8,24 L8,26 L7,26 L7,24 Z M5,35 L18,35 L18,36 L5,36 L5,35 Z" id="Rectangle-102" fill="#293333" sketch:type="MSShapeGroup"></path>
            <path d="M4,14 L4,15 L5,15 L5,5 L4,5 L4,14 L3,14 L3,15 L5,15 L5,14 L4,14 L4,14 Z M5,3 L6,3 L6,6 L5,6 L5,3 Z M6,2 L7,2 L7,4 L6,4 L6,2 Z M7,1 L8,1 L8,3 L7,3 L7,1 Z M8,0 L9,0 L9,2 L8,2 L8,0 Z M9,0 L11,0 L11,1 L9,1 L9,0 Z M2,15 L3,15 L3,17 L2,17 L2,15 Z M1,16 L2,16 L2,18 L1,18 L1,16 Z M0,17 L1,17 L1,21 L0,21 L0,17 Z M1,21 L2,21 L2,22 L1,22 L1,21 Z M2,22 L3,22 L3,26 L2,26 L2,22 Z M3,23 L4,23 L4,24 L3,24 L3,23 Z M3,26 L7,26 L7,27 L3,27 L3,26 Z M6,22 L7,22 L7,26 L6,26 L6,22 Z M5,15 L6,15 L6,23 L5,23 L5,15 Z M4,18 L5,18 L5,19 L4,19 L4,18 Z M3,19 L4,19 L4,20 L3,20 L3,19 Z M4,20 L5,20 L5,21 L4,21 L4,20 Z M6,15 L9,15 L9,16 L6,16 L6,15 Z M6,19 L9,19 L9,20 L6,20 L6,19 Z M6,7 L7,7 L7,14 L6,14 L6,7 Z M7,13 L9,13 L9,14 L7,14 L7,13 Z M7,5 L8,5 L8,8 L7,8 L7,5 Z M8,4 L9,4 L9,6 L8,6 L8,4 Z M9,3 L10,3 L10,5 L9,5 L9,3 Z M19,9 L20,9 L20,14 L19,14 L19,9 Z M18,19 L19,19 L19,20 L18,20 L18,19 Z M15,24 L16,24 L16,26 L15,26 L15,24 Z M8,24 L12,24 L12,25 L8,25 L8,24 Z M11,25 L12,25 L12,34 L11,34 L11,25 Z M8,25 L9,25 L9,30 L8,30 L8,25 Z M7,29 L8,29 L8,31 L7,31 L7,29 Z M6,30 L7,30 L7,32 L6,32 L6,30 Z M5,31 L6,31 L6,34 L5,34 L5,31 Z M5,34 L18,34 L18,35 L5,35 L5,34 Z M4,14 L5,14 L5,15 L4,15 L4,14 Z" id="Rectangle-1" fill="#598080" sketch:type="MSShapeGroup"></path>
            <path d="M11,0 L15,0 L15,1 L11,1 L11,0 Z M14,1 L16,1 L16,2 L14,2 L14,1 Z M15,2 L17,2 L17,3 L15,3 L15,2 Z M16,3 L18,3 L18,4 L16,4 L16,3 Z M17,4 L18,4 L18,6 L17,6 L17,4 Z M18,5 L19,5 L19,14 L18,14 L18,5 Z M18,14 L20,14 L20,15 L18,15 L18,14 Z M20,15 L21,15 L21,17 L20,17 L20,15 Z M21,16 L22,16 L22,18 L21,18 L21,16 Z M22,17 L23,17 L23,21 L22,21 L22,17 Z M21,21 L22,21 L22,22 L21,22 L21,21 Z M20,22 L21,22 L21,26 L20,26 L20,22 Z M19,23 L20,23 L20,24 L19,24 L19,23 Z M16,26 L20,26 L20,27 L16,27 L16,26 Z M16,22 L17,22 L17,26 L16,26 L16,22 Z M17,15 L18,15 L18,23 L17,23 L17,15 Z M18,18 L19,18 L19,19 L18,19 L18,18 Z M18,20 L19,20 L19,21 L18,21 L18,20 Z M9,15 L17,15 L17,16 L9,16 L9,15 Z M9,19 L17,19 L17,20 L9,20 L9,19 Z M12,24 L15,24 L15,25 L12,25 L12,24 Z M14,25 L15,25 L15,30 L14,30 L14,25 Z M15,29 L16,29 L16,31 L15,31 L15,29 Z M16,30 L17,30 L17,32 L16,32 L16,30 Z M17,31 L18,31 L18,34 L17,34 L17,31 Z M10,3 L14,3 L14,4 L10,4 L10,3 Z M13,4 L15,4 L15,5 L13,5 L13,4 Z M14,5 L16,5 L16,6 L14,6 L14,5 Z M15,6 L16,6 L16,8 L15,8 L15,6 Z M16,7 L17,7 L17,14 L16,14 L16,7 Z M9,13 L16,13 L16,14 L9,14 L9,13 Z M19,19 L20,19 L20,20 L19,20 L19,19 Z" id="Rectangle-37" fill="#7DB3B3" sketch:type="MSShapeGroup"></path>
            <path d="M9,1 L11,1 L11,2 L9,2 L9,1 Z M8,2 L10,2 L10,3 L8,3 L8,2 Z M7,3 L9,3 L9,4 L7,4 L7,3 Z M6,4 L8,4 L8,5 L6,5 L6,4 Z M6,5 L7,5 L7,7 L6,7 L6,5 Z M5,6 L6,6 L6,15 L5,15 L5,6 Z M6,14 L9,14 L9,15 L6,15 L6,14 Z M6,16 L9,16 L9,19 L6,19 L6,16 Z M6,20 L9,20 L9,22 L6,22 L6,20 Z M7,22 L10,22 L10,24 L7,24 L7,22 Z M9,21 L10,21 L10,22 L9,22 L9,21 Z M10,23 L11,23 L11,24 L10,24 L10,23 Z M3,15 L5,15 L5,16 L3,16 L3,15 Z M3,16 L4,16 L4,17 L3,17 L3,16 Z M2,17 L3,17 L3,19 L2,19 L2,17 Z M1,18 L2,18 L2,19 L1,19 L1,18 Z M1,20 L3,20 L3,21 L1,21 L1,20 Z M2,21 L4,21 L4,22 L2,22 L2,21 Z M3,22 L4,22 L4,23 L3,23 L3,22 Z M3,24 L4,24 L4,26 L3,26 L3,24 Z M9,25 L10,25 L10,27 L9,27 L9,25 Z M9,28 L10,28 L10,30 L9,30 L9,28 Z M8,30 L9,30 L9,32 L8,32 L8,30 Z M7,31 L8,31 L8,34 L7,34 L7,31 Z M6,32 L7,32 L7,34 L6,34 L6,32 Z M12,25 L13,25 L13,27 L12,27 L12,25 Z M12,28 L13,28 L13,32 L12,32 L12,28 Z M12,32 L14,32 L14,34 L12,34 L12,32 Z M17,23 L18,23 L18,26 L17,26 L17,23 Z M18,21 L19,21 L19,23 L18,23 L18,21 Z M18,17 L19,17 L19,18 L18,18 L18,17 Z M19,18 L20,18 L20,19 L19,19 L19,18 Z M19,20 L20,20 L20,21 L19,21 L19,20 Z" id="Rectangle-69" fill="#AECCCC" sketch:type="MSShapeGroup"></path>
            <path d="M10,28 L11,28 L11,34 L10,34 L10,28 Z M9,30 L10,30 L10,34 L9,34 L9,30 Z M8,32 L9,32 L9,34 L8,34 L8,32 Z M13,28 L14,28 L14,32 L13,32 L13,28 Z M14,30 L15,30 L15,34 L14,34 L14,30 Z M15,31 L16,31 L16,34 L15,34 L15,31 Z M16,32 L17,32 L17,34 L16,34 L16,32 Z M11,1 L14,1 L14,2 L11,2 L11,1 Z M10,2 L15,2 L15,3 L10,3 L10,2 Z M14,3 L16,3 L16,4 L14,4 L14,3 Z M15,4 L17,4 L17,5 L15,5 L15,4 Z M16,5 L17,5 L17,7 L16,7 L16,5 Z M17,6 L18,6 L18,14 L17,14 L17,6 Z M9,14 L18,14 L18,15 L9,15 L9,14 Z M9,16 L13,16 L13,17 L9,17 L9,16 Z M9,17 L12,17 L12,19 L9,19 L9,17 Z M13,17 L14,17 L14,19 L13,19 L13,17 Z M15,16 L17,16 L17,18 L15,18 L15,16 Z M16,18 L17,18 L17,19 L16,19 L16,18 Z M4,16 L5,16 L5,18 L4,18 L4,16 Z M3,17 L4,17 L4,19 L3,19 L3,17 Z M3,20 L4,20 L4,21 L3,21 L3,20 Z M4,21 L5,21 L5,23 L4,23 L4,21 Z M4,23 L6,23 L6,26 L4,26 L4,23 Z M18,15 L20,15 L20,17 L18,17 L18,15 Z M19,17 L21,17 L21,18 L19,18 L19,17 Z M20,18 L22,18 L22,19 L20,19 L20,18 Z M20,20 L22,20 L22,21 L20,21 L20,20 Z M19,21 L21,21 L21,22 L19,22 L19,21 Z M19,22 L20,22 L20,23 L19,23 L19,22 Z M18,23 L19,23 L19,24 L18,24 L18,23 Z M18,24 L20,24 L20,26 L18,26 L18,24 Z M9,20 L17,20 L17,21 L9,21 L9,20 Z M10,21 L17,21 L17,22 L10,22 L10,21 Z M10,22 L16,22 L16,23 L10,23 L10,22 Z M11,23 L16,23 L16,24 L11,24 L11,23 Z M10,25 L11,25 L11,27 L10,27 L10,25 Z M13,25 L14,25 L14,27 L13,27 L13,25 Z" id="Rectangle-153" fill="#E6F2F2" sketch:type="MSShapeGroup"></path>
            <path d="M1,19 L2,19 L2,20 L1,20 L1,19 Z M12,17 L13,17 L13,19 L12,19 L12,17 Z M10,9 L11,9 L11,10 L10,10 L10,9 Z M11,10 L12,10 L12,11 L11,11 L11,10 Z M10,11 L11,11 L11,12 L10,12 L10,11 Z M9,12 L10,12 L10,13 L9,13 L9,12 Z M9,27 L10,27 L10,28 L9,28 L9,27 Z M20,19 L21,19 L21,20 L20,20 L20,19 Z" id="Rectangle-160" fill="#66CCCC" sketch:type="MSShapeGroup"></path>
            <path d="M12,5 L13,5 L13,6 L12,6 L12,5 Z M11,6 L12,6 L12,8 L11,8 L11,6 Z M10,7 L11,7 L11,9 L10,9 L10,7 Z M9,8 L10,8 L10,9 L9,9 L9,8 Z M11,9 L12,9 L12,10 L11,10 L11,9 Z M12,10 L14,10 L14,11 L12,11 L12,10 Z M11,11 L13,11 L13,12 L11,12 L11,11 Z M10,12 L12,12 L12,13 L10,13 L10,12 Z M13,16 L14,16 L14,17 L13,17 L13,16 Z M14,17 L15,17 L15,19 L14,19 L14,17 Z M2,19 L3,19 L3,20 L2,20 L2,19 Z M21,19 L22,19 L22,20 L21,20 L21,19 Z M10,27 L11,27 L11,28 L10,28 L10,27 Z M12,27 L14,27 L14,28 L12,28 L12,27 Z" id="Rectangle-168" fill="#73E5E5" sketch:type="MSShapeGroup"></path>
            <path d="M14,16 L15,16 L15,17 L14,17 L14,16 Z M15,18 L16,18 L16,19 L15,19 L15,18 Z" id="Rectangle-182" fill="#A1E5E5" sketch:type="MSShapeGroup"></path>
        </g>
    </g>
</svg>